<svg xmlns="http://www.w3.org/2000/svg" version="1.1" xmlns:xlink="http://www.w3.org/1999/xlink" xmlnsSvgjs="http://svgjs.com/svgjs" width="512" height="512" x="0" y="0" viewBox="0 0 32 32" style="enable-background:new 0 0 512 512" xml:space="preserve" class=""><g>
<g fillRule="evenodd" stroke-linecap="round" stroke-linejoin="round" stroke-miterlimit="4.1"><path fill="#0077cc" d="m16 9 12.077 3.45A2.651 2.651 0 0 1 30 15v13a2 2 0 0 1-2 2H16zM4 2a1 1 0 0 0-1 1v3a1 1 0 0 0 1 1h10a1 1 0 0 0 1-1V3a1 1 0 0 0-1-1z" data-original="#0077cc" class=""></path><path fill="#41a5ee" d="M4 4h10a2 2 0 0 1 2 2v24H4a2 2 0 0 1-2-2V6a2 2 0 0 1 2-2z" data-original="#41a5ee"></path><g fill="#d7eefe"><path d="M19 14a1 1 0 1 0 0 2h2a1 1 0 0 0 0-2zM25 14a1 1 0 1 0 0 2h2a1 1 0 0 0 0-2zM19 17a1 1 0 1 0 0 2h2a1 1 0 0 0 0-2zM25 17a1 1 0 1 0 0 2h2a1 1 0 0 0 0-2zM19 20a1 1 0 1 0 0 2h2a1 1 0 0 0 0-2zM25 20a1 1 0 1 0 0 2h2a1 1 0 0 0 0-2zM21 24a1 1 0 0 0-1 1v5h6v-5a1 1 0 0 0-1-1zM7 9a1 1 0 0 0-1 1 1 1 0 0 0 1 1h4a1 1 0 0 0 1-1 1 1 0 0 0-1-1zM7 14a1 1 0 0 0-1 1 1 1 0 0 0 1 1h4a1 1 0 0 0 1-1 1 1 0 0 0-1-1zM7 19a1 1 0 0 0-1 1 1 1 0 0 0 1 1h4a1 1 0 0 0 1-1 1 1 0 0 0-1-1zM7 24a1 1 0 0 0-1 1 1 1 0 0 0 1 1h4a1 1 0 0 0 1-1 1 1 0 0 0-1-1z" fill="#d7eefe" data-original="#d7eefe" class=""></path></g></g></g></svg>